<svg width="1600" height="900" viewBox="0 0 1600 900" fill="none" xmlns="http://www.w3.org/2000/svg">
  <defs>
    <linearGradient id="bg" x1="0" y1="0" x2="1600" y2="900" gradientUnits="userSpaceOnUse">
      <stop stop-color="#E7EEFF"/>
      <stop offset="1" stop-color="#F4F8FF"/>
    </linearGradient>
    <pattern id="grid" x="0" y="0" width="40" height="40" patternUnits="userSpaceOnUse">
      <path d="M40 0H0V40" stroke="#C7D7FF" stroke-opacity="0.45"/>
    </pattern>
    <linearGradient id="line" x1="0" y1="0" x2="1" y2="0">
      <stop stop-color="#2A57CF" stop-opacity="0.2"/>
      <stop offset="1" stop-color="#2A57CF" stop-opacity="0"/>
    </linearGradient>
  </defs>

  <rect width="1600" height="900" fill="url(#bg)"/>
  <rect width="1600" height="900" fill="url(#grid)"/>

  <g opacity="0.8">
    <path d="M0 180H600" stroke="url(#line)" stroke-width="2"/>
    <path d="M280 0V360" stroke="#8FA9F4" stroke-opacity="0.35" stroke-width="2"/>
    <circle cx="280" cy="180" r="6" fill="#2E5BD1" fill-opacity="0.35"/>
  </g>

  <g opacity="0.65">
    <path d="M1040 510H1600" stroke="url(#line)" stroke-width="2"/>
    <path d="M1320 330V900" stroke="#9AB3F8" stroke-opacity="0.3" stroke-width="2"/>
    <circle cx="1320" cy="510" r="7" fill="#2E5BD1" fill-opacity="0.35"/>
  </g>

  <g stroke="#2E5BD1" stroke-opacity="0.18" stroke-width="2">
    <path d="M1220 180L1260 220L1220 260"/>
    <path d="M1320 260L1285 170"/>
    <path d="M1380 180L1420 220L1380 260"/>
  </g>

  <g fill="#10B981" fill-opacity="0.2">
    <circle cx="210" cy="720" r="120"/>
    <circle cx="1450" cy="140" r="95"/>
  </g>
</svg>
